<svg width="16" height="10" viewBox="0 0 16 10" fill="none" xmlns="http://www.w3.org/2000/svg">
<path d="M11.6665 1.30914C11.423 1.5538 11.4239 1.94952 11.6686 2.19302L13.8612 4.37502L0.625 4.37502C0.279812 4.37502 -1.8447e-07 4.65483 -1.69382e-07 5.00002C-1.54293e-07 5.34521 0.279812 5.62502 0.625 5.62502L13.8612 5.62502L11.6686 7.80702C11.4239 8.05052 11.423 8.44624 11.6665 8.69089C11.91 8.93558 12.3057 8.93649 12.5504 8.69302L15.8161 5.44302C15.8163 5.44283 15.8165 5.44261 15.8167 5.44242C16.0607 5.19892 16.0615 4.80192 15.8167 4.55761C15.8165 4.55742 15.8163 4.55721 15.8162 4.55702L12.5504 1.30702C12.3058 1.06358 11.91 1.06442 11.6665 1.30914Z" stroke-width="0.5"/>
</svg>
