<svg width="13" height="13" viewBox="0 0 13 13" fill="none" xmlns="http://www.w3.org/2000/svg">
<g clip-path="url(#clip0)">
<path d="M12.9874 3.82204C12.9569 3.1313 12.8452 2.65642 12.6852 2.24493C12.5202 1.80815 12.2662 1.41709 11.9335 1.09201C11.6084 0.761868 11.2148 0.505333 10.783 0.34284C10.3692 0.182828 9.89677 0.0711275 9.20603 0.0406726C8.51013 0.00763851 8.28921 0 6.52422 0C4.75922 0 4.5383 0.00763851 3.84498 0.0380934C3.15424 0.0685482 2.67937 0.180348 2.26798 0.340261C1.83109 0.505333 1.44004 0.759288 1.11496 1.09201C0.784816 1.41709 0.528381 1.81073 0.365789 2.24245C0.205778 2.65642 0.0940767 3.12872 0.0636218 3.81946C0.0305877 4.51536 0.0229492 4.73628 0.0229492 6.50127C0.0229492 8.26626 0.0305877 8.48719 0.0610426 9.1805C0.0914974 9.87124 0.203297 10.3461 0.363309 10.7576C0.528381 11.1944 0.784816 11.5854 1.11496 11.9105C1.44004 12.2407 1.83367 12.4972 2.2654 12.6597C2.67937 12.8197 3.15166 12.9314 3.8425 12.9619C4.53572 12.9924 4.75674 13 6.52174 13C8.28673 13 8.50765 12.9924 9.20097 12.9619C9.89171 12.9314 10.3666 12.8197 10.778 12.6597C11.6516 12.3219 12.3424 11.6312 12.6802 10.7576C12.8401 10.3436 12.9519 9.87124 12.9823 9.1805C13.0128 8.48719 13.0204 8.26626 13.0204 6.50127C13.0204 4.73628 13.0178 4.51536 12.9874 3.82204ZM11.8167 9.12971C11.7887 9.7646 11.6821 10.1074 11.5932 10.336C11.3748 10.9023 10.9253 11.3518 10.3589 11.5703C10.1304 11.6592 9.78507 11.7658 9.15266 11.7937C8.46698 11.8242 8.26133 11.8318 6.5268 11.8318C4.79226 11.8318 4.58403 11.8242 3.90083 11.7937C3.26594 11.7658 2.9231 11.6592 2.69454 11.5703C2.41271 11.4661 2.15618 11.301 1.94795 11.0852C1.73209 10.8744 1.56702 10.6204 1.46286 10.3386C1.37397 10.11 1.26733 9.7646 1.23946 9.13229C1.2089 8.44661 1.20136 8.24087 1.20136 6.50633C1.20136 4.77179 1.2089 4.56357 1.23946 3.88047C1.26733 3.24558 1.37397 2.90274 1.46286 2.67418C1.56702 2.39224 1.73209 2.13581 1.95053 1.92749C2.16124 1.71162 2.41519 1.54655 2.69712 1.44249C2.92568 1.3536 3.2711 1.24696 3.90341 1.21899C4.58909 1.18853 4.79484 1.18089 6.52928 1.18089C8.26639 1.18089 8.47204 1.18853 9.15524 1.21899C9.79013 1.24696 10.133 1.3536 10.3615 1.44249C10.6434 1.54655 10.8999 1.71162 11.1081 1.92749C11.324 2.13829 11.4891 2.39224 11.5932 2.67418C11.6821 2.90274 11.7887 3.24806 11.8167 3.88047C11.8472 4.56615 11.8548 4.77179 11.8548 6.50633C11.8548 8.24087 11.8472 8.44403 11.8167 9.12971Z" fill="white"/>
<path d="M6.52409 3.16187C4.68043 3.16187 3.18457 4.65763 3.18457 6.50138C3.18457 8.34514 4.68043 9.8409 6.52409 9.8409C8.36785 9.8409 9.86361 8.34514 9.86361 6.50138C9.86361 4.65763 8.36785 3.16187 6.52409 3.16187ZM6.52409 8.66765C5.32802 8.66765 4.35783 7.69756 4.35783 6.50138C4.35783 5.30521 5.32802 4.33512 6.52409 4.33512C7.72026 4.33512 8.69035 5.30521 8.69035 6.50138C8.69035 7.69756 7.72026 8.66765 6.52409 8.66765Z" fill="white"/>
<path d="M10.7757 3.02987C10.7757 3.4604 10.4266 3.80949 9.99593 3.80949C9.5654 3.80949 9.21631 3.4604 9.21631 3.02987C9.21631 2.59923 9.5654 2.25024 9.99593 2.25024C10.4266 2.25024 10.7757 2.59923 10.7757 3.02987Z" fill="white"/>
</g>
<defs>
<clipPath id="clip0">
<rect width="13" height="13" fill="white"/>
</clipPath>
</defs>
</svg>
