<svg width="12" height="12" viewBox="0 0 12 12" fill="none" xmlns="http://www.w3.org/2000/svg">
<g clip-path="url(#clip0)">
<path d="M11.9972 12.0001V11.9996H12.0002V7.59861C12.0002 5.44561 11.5367 3.78711 9.01964 3.78711C7.80964 3.78711 6.99764 4.45111 6.66614 5.08061H6.63114V3.98811H4.24463V11.9996H6.72964V8.03261C6.72964 6.98811 6.92764 5.97811 8.22114 5.97811C9.49564 5.97811 9.51464 7.17011 9.51464 8.09961V12.0001H11.9972Z" fill="white"/>
<path d="M0.197754 3.98853H2.68575V12H0.197754V3.98853Z" fill="white"/>
<path d="M1.441 0C0.6455 0 0 0.6455 0 1.441C0 2.2365 0.6455 2.8955 1.441 2.8955C2.2365 2.8955 2.882 2.2365 2.882 1.441C2.8815 0.6455 2.236 0 1.441 0V0Z" fill="white"/>
</g>
<defs>
<clipPath id="clip0">
<rect width="12" height="12" fill="white"/>
</clipPath>
</defs>
</svg>
