<svg width="12" height="10" viewBox="0 0 12 10" fill="none" xmlns="http://www.w3.org/2000/svg">
<path d="M10.4774 2.84642C10.4774 2.7371 10.4754 2.62877 10.4705 2.52143C10.9383 2.1728 11.344 1.73654 11.6651 1.23724C11.2357 1.43028 10.7748 1.55929 10.2903 1.61342C10.7847 1.3091 11.1638 0.822616 11.343 0.238633C10.8802 0.519296 10.3681 0.7202 9.82348 0.824599C9.38723 0.328234 8.76483 0.0121341 8.07642 0.000309982C6.75481 -0.0213557 5.68335 1.09542 5.68335 2.49481C5.68335 2.69373 5.70402 2.88677 5.74537 3.07288C3.7551 2.94487 1.99133 1.90884 0.811508 0.346962C0.605684 0.721191 0.487513 1.15844 0.487513 1.62722C0.487513 2.51357 0.909994 3.3014 1.55207 3.76622C1.15915 3.74852 0.790833 3.62936 0.46783 3.43433C0.46783 3.44516 0.46783 3.45599 0.46783 3.46683C0.46783 4.70574 1.29311 5.74371 2.38818 5.98596C2.18728 6.04307 1.97554 6.07263 1.75789 6.07167C1.6033 6.07068 1.45358 6.05393 1.30784 6.02239C1.61215 7.03774 2.49651 7.7793 3.54333 7.8039C2.72396 8.4834 1.69191 8.88914 0.571202 8.8862C0.378158 8.8862 0.187132 8.87342 0 8.84977C1.05967 9.57656 2.31724 10 3.66936 10C8.0705 10.001 10.4774 6.17012 10.4774 2.84642Z" fill="white"/>
</svg>
