<svg width="12" height="9" viewBox="0 0 12 9" fill="none" xmlns="http://www.w3.org/2000/svg">
<path d="M11.7528 1.3147C11.6145 0.800612 11.2092 0.395362 10.6951 0.256934C9.7561 0 5.99987 0 5.99987 0C5.99987 0 2.24378 0 1.30474 0.247193C0.800612 0.385474 0.385401 0.800685 0.24712 1.3147C0 2.25367 0 4.20096 0 4.20096C0 4.20096 0 6.15807 0.24712 7.08722C0.385548 7.60124 0.790724 8.00649 1.30481 8.14491C2.25367 8.40192 6.00001 8.40192 6.00001 8.40192C6.00001 8.40192 9.7561 8.40192 10.6951 8.15473C11.2092 8.01637 11.6145 7.61112 11.7529 7.09711C11.9999 6.15807 11.9999 4.21085 11.9999 4.21085C11.9999 4.21085 12.0098 2.25367 11.7528 1.3147ZM4.80396 5.99994V2.40198L7.92746 4.20096L4.80396 5.99994Z" fill="white"/>
</svg>
